<svg width="360" height="274" viewBox="0 0 360 274" fill="none" xmlns="http://www.w3.org/2000/svg">
<path d="M194.154 8.40649H25.4597C11.3988 8.40649 0 19.8051 0 33.8662V79.2414H194.154V8.40649Z" fill="#ECF6FF"/>
<path d="M334.54 273.589H25.4597C11.3988 273.589 0 262.191 0 248.13V77.6523C0 63.5913 11.3986 52.1925 25.4597 52.1925H140.901C148.31 52.1925 155.394 49.154 160.5 43.7861L194.154 8.40646C199.26 3.03859 206.344 0 213.752 0H334.54C348.601 0 360 11.3988 360 25.4597V248.13C360 262.191 348.601 273.589 334.54 273.589Z" fill="white"/>
<line x1="186.5" y1="252.795" x2="186.5" y2="202.795" stroke="#DDDDDD"/>
</svg>
